<svg width="1440" height="1024" viewBox="0 0 1440 1024" fill="none" xmlns="http://www.w3.org/2000/svg">
  <g opacity="0.15">
    <path d="M-12 391C67.6 391 108.5 315.5 147 259.5C185.5 203.5 249.5 152 317.5 152C385.5 152 409 206 465.5 259.5C522 313 578 391 670.5 391C763 391 791 328.5 856 259.5C921 190.5 952.5 152 1036 152C1119.5 152 1167.5 211 1214 259.5C1260.5 308 1306 391 1382 391C1458 391 1484 308 1508.5 259.5" stroke="#4CAF50" stroke-width="2" stroke-linecap="round"/>
    <path d="M-12 596C67.6 596 108.5 520.5 147 464.5C185.5 408.5 249.5 357 317.5 357C385.5 357 409 411 465.5 464.5C522 518 578 596 670.5 596C763 596 791 533.5 856 464.5C921 395.5 952.5 357 1036 357C1119.5 357 1167.5 416 1214 464.5C1260.5 513 1306 596 1382 596C1458 596 1484 513 1508.5 464.5" stroke="#4CAF50" stroke-width="2" stroke-linecap="round"/>
    <path d="M-12 811C67.6 811 108.5 735.5 147 679.5C185.5 623.5 249.5 572 317.5 572C385.5 572 409 626 465.5 679.5C522 733 578 811 670.5 811C763 811 791 748.5 856 679.5C921 610.5 952.5 572 1036 572C1119.5 572 1167.5 631 1214 679.5C1260.5 728 1306 811 1382 811C1458 811 1484 728 1508.5 679.5" stroke="#4CAF50" stroke-width="2" stroke-linecap="round"/>
    <path d="M-72 174C17.6 174 63.5 106.5 108 56.5C152.5 6.5 226.5 -39 304.5 -39C382.5 -39 409 9 474.5 56.5C540 104 604 174 709.5 174C815 174 846 118.5 920 56.5C994 -5.5 1030 -39 1125 -39C1220 -39 1275 9 1329 56.5C1383 104 1436 174 1523 174C1610 174 1639 104 1667.5 56.5" stroke="#4CAF50" stroke-width="2" stroke-linecap="round"/>
    <path d="M-72 1019C17.6 1019 63.5 951.5 108 901.5C152.5 851.5 226.5 806 304.5 806C382.5 806 409 854 474.5 901.5C540 949 604 1019 709.5 1019C815 1019 846 963.5 920 901.5C994 839.5 1030 806 1125 806C1220 806 1275 854 1329 901.5C1383 949 1436 1019 1523 1019C1610 1019 1639 949 1667.5 901.5" stroke="#4CAF50" stroke-width="2" stroke-linecap="round"/>
  </g>
</svg>